<svg xmlns="http://www.w3.org/2000/svg" viewBox="0 0 700 640" width="700" height="640">
  <title>Todd Shea Real Estate — primary lockup</title>
  <g transform="translate(350.0,210) scale(1.75)">
    <circle cx="0" cy="0" r="88" fill="none" stroke="#F4F1E8" stroke-width="10.0"/>
    <g transform="translate(0,-6)">
      <path d="M-36 32 L-4 -38 L18 -38 L-14 32 Z" fill="#D85A30"/>
      <path d="M-2 32 L30 -38 L42 -38 L10 32 Z" fill="#EF9F27"/>
    </g>
    <path d="M-48 48 Q-24 36 0 48 T48 48" fill="none" stroke="#85B7EB" stroke-width="8.0" stroke-linecap="round"/>
  </g>
  <path transform="translate(123.21,488.00) scale(0.028320,-0.028320)" d="M773 1181V0H478V1181H23V1409H1229V1181Z" fill="#F4F1E8"/>
  <path transform="translate(174.64,488.00) scale(0.028320,-0.028320)" d="M1507 711Q1507 491 1420.0 324.0Q1333 157 1171.0 68.5Q1009 -20 793 -20Q461 -20 272.5 175.5Q84 371 84 711Q84 1050 272.0 1240.0Q460 1430 795 1430Q1130 1430 1318.5 1238.0Q1507 1046 1507 711ZM1206 711Q1206 939 1098.0 1068.5Q990 1198 795 1198Q597 1198 489.0 1069.5Q381 941 381 711Q381 479 491.5 345.5Q602 212 793 212Q991 212 1098.5 342.0Q1206 472 1206 711Z" fill="#F4F1E8"/>
  <path transform="translate(235.76,488.00) scale(0.028320,-0.028320)" d="M1393 715Q1393 497 1307.5 334.5Q1222 172 1065.5 86.0Q909 0 707 0H137V1409H647Q1003 1409 1198.0 1229.5Q1393 1050 1393 715ZM1096 715Q1096 942 978.0 1061.5Q860 1181 641 1181H432V228H682Q872 228 984.0 359.0Q1096 490 1096 715Z" fill="#F4F1E8"/>
  <path transform="translate(293.64,488.00) scale(0.028320,-0.028320)" d="M1393 715Q1393 497 1307.5 334.5Q1222 172 1065.5 86.0Q909 0 707 0H137V1409H647Q1003 1409 1198.0 1229.5Q1393 1050 1393 715ZM1096 715Q1096 942 978.0 1061.5Q860 1181 641 1181H432V228H682Q872 228 984.0 359.0Q1096 490 1096 715Z" fill="#F4F1E8"/>
  <path transform="translate(383.64,488.00) scale(0.028320,-0.028320)" d="M1286 406Q1286 199 1132.5 89.5Q979 -20 682 -20Q411 -20 257.0 76.0Q103 172 59 367L344 414Q373 302 457.0 251.5Q541 201 690 201Q999 201 999 389Q999 449 963.5 488.0Q928 527 863.5 553.0Q799 579 616 616Q458 653 396.0 675.5Q334 698 284.0 728.5Q234 759 199.0 802.0Q164 845 144.5 903.0Q125 961 125 1036Q125 1227 268.5 1328.5Q412 1430 686 1430Q948 1430 1079.5 1348.0Q1211 1266 1249 1077L963 1038Q941 1129 873.5 1175.0Q806 1221 680 1221Q412 1221 412 1053Q412 998 440.5 963.0Q469 928 525.0 903.5Q581 879 752 842Q955 799 1042.5 762.5Q1130 726 1181.0 677.5Q1232 629 1259.0 561.5Q1286 494 1286 406Z" fill="#F4F1E8"/>
  <path transform="translate(438.33,488.00) scale(0.028320,-0.028320)" d="M1046 0V604H432V0H137V1409H432V848H1046V1409H1341V0Z" fill="#F4F1E8"/>
  <path transform="translate(496.21,488.00) scale(0.028320,-0.028320)" d="M137 0V1409H1245V1181H432V827H1184V599H432V228H1286V0Z" fill="#F4F1E8"/>
  <path transform="translate(550.90,488.00) scale(0.028320,-0.028320)" d="M1133 0 1008 360H471L346 0H51L565 1409H913L1425 0ZM739 1192 733 1170Q723 1134 709.0 1088.0Q695 1042 537 582H942L803 987L760 1123Z" fill="#F4F1E8"/>
  <path transform="translate(214.61,530.00) scale(0.010742,-0.010742)" d="M1105 0 778 535H432V0H137V1409H841Q1093 1409 1230.0 1300.5Q1367 1192 1367 989Q1367 841 1283.0 733.5Q1199 626 1056 592L1437 0ZM1070 977Q1070 1180 810 1180H432V764H818Q942 764 1006.0 820.0Q1070 876 1070 977Z" fill="#EF9F27"/>
  <path transform="translate(243.49,530.00) scale(0.010742,-0.010742)" d="M137 0V1409H1245V1181H432V827H1184V599H432V228H1286V0Z" fill="#EF9F27"/>
  <path transform="translate(271.17,530.00) scale(0.010742,-0.010742)" d="M1133 0 1008 360H471L346 0H51L565 1409H913L1425 0ZM739 1192 733 1170Q723 1134 709.0 1088.0Q695 1042 537 582H942L803 987L760 1123Z" fill="#EF9F27"/>
  <path transform="translate(300.06,530.00) scale(0.010742,-0.010742)" d="M137 0V1409H432V228H1188V0Z" fill="#EF9F27"/>
  <path transform="translate(345.61,530.00) scale(0.010742,-0.010742)" d="M137 0V1409H1245V1181H432V827H1184V599H432V228H1286V0Z" fill="#EF9F27"/>
  <path transform="translate(373.28,530.00) scale(0.010742,-0.010742)" d="M1286 406Q1286 199 1132.5 89.5Q979 -20 682 -20Q411 -20 257.0 76.0Q103 172 59 367L344 414Q373 302 457.0 251.5Q541 201 690 201Q999 201 999 389Q999 449 963.5 488.0Q928 527 863.5 553.0Q799 579 616 616Q458 653 396.0 675.5Q334 698 284.0 728.5Q234 759 199.0 802.0Q164 845 144.5 903.0Q125 961 125 1036Q125 1227 268.5 1328.5Q412 1430 686 1430Q948 1430 1079.5 1348.0Q1211 1266 1249 1077L963 1038Q941 1129 873.5 1175.0Q806 1221 680 1221Q412 1221 412 1053Q412 998 440.5 963.0Q469 928 525.0 903.5Q581 879 752 842Q955 799 1042.5 762.5Q1130 726 1181.0 677.5Q1232 629 1259.0 561.5Q1286 494 1286 406Z" fill="#EF9F27"/>
  <path transform="translate(400.95,530.00) scale(0.010742,-0.010742)" d="M773 1181V0H478V1181H23V1409H1229V1181Z" fill="#EF9F27"/>
  <path transform="translate(427.39,530.00) scale(0.010742,-0.010742)" d="M1133 0 1008 360H471L346 0H51L565 1409H913L1425 0ZM739 1192 733 1170Q723 1134 709.0 1088.0Q695 1042 537 582H942L803 987L760 1123Z" fill="#EF9F27"/>
  <path transform="translate(456.28,530.00) scale(0.010742,-0.010742)" d="M773 1181V0H478V1181H23V1409H1229V1181Z" fill="#EF9F27"/>
  <path transform="translate(482.72,530.00) scale(0.010742,-0.010742)" d="M137 0V1409H1245V1181H432V827H1184V599H432V228H1286V0Z" fill="#EF9F27"/>
</svg>
